<svg width="166" height="133" viewBox="0 0 166 133" fill="none" xmlns="http://www.w3.org/2000/svg">
<g clip-path="url(#clip0_1918_1601)">
<path d="M7.47567 114C7.47567 56.7103 41.289 10.2678 82.9999 10.2678C124.711 10.2678 158.524 56.7103 158.524 114" stroke="white" stroke-width="5" stroke-miterlimit="10"/>
</g>
<g clip-path="url(#clip1_1918_1601)">
<path d="M82.5071 66.6656V34" stroke="white" stroke-width="0.647051" stroke-miterlimit="10"/>
<path d="M84.4946 66.7833L88.3491 34.3459" stroke="white" stroke-width="0.647051" stroke-miterlimit="10"/>
<path d="M86.4544 67.1346L94.1094 35.3787" stroke="white" stroke-width="0.647051" stroke-miterlimit="10"/>
<path d="M88.359 67.7148L99.7077 37.084" stroke="white" stroke-width="0.647051" stroke-miterlimit="10"/>
<path d="M90.1819 68.5156L105.066 39.4379" stroke="white" stroke-width="0.647051" stroke-miterlimit="10"/>
<path d="M91.8975 69.526L110.108 42.4077" stroke="white" stroke-width="0.647051" stroke-miterlimit="10"/>
<path d="M93.4819 70.7317L114.765 45.9516" stroke="white" stroke-width="0.647051" stroke-miterlimit="10"/>
<path d="M94.913 72.116L118.972 50.0204" stroke="white" stroke-width="0.647051" stroke-miterlimit="10"/>
<path d="M96.1707 73.6594L122.669 54.5571" stroke="white" stroke-width="0.647051" stroke-miterlimit="10"/>
<path d="M97.2375 75.3405L125.804 59.4983" stroke="white" stroke-width="0.647051" stroke-miterlimit="10"/>
<path d="M98.0985 77.1357L128.335 64.775" stroke="white" stroke-width="0.647051" stroke-miterlimit="10"/>
<path d="M98.7417 79.02L130.226 70.3134" stroke="white" stroke-width="0.647051" stroke-miterlimit="10"/>
<path d="M99.1581 80.967L131.449 76.0363" stroke="white" stroke-width="0.647051" stroke-miterlimit="10"/>
<path d="M99.3417 82.9495L131.989 81.8636" stroke="white" stroke-width="0.647051" stroke-miterlimit="10"/>
<path d="M99.2902 84.9399L131.838 87.7138" stroke="white" stroke-width="0.647051" stroke-miterlimit="10"/>
<path d="M99.0042 86.9102L130.997 93.5053" stroke="white" stroke-width="0.647051" stroke-miterlimit="10"/>
<path d="M98.4876 88.8331L129.479 99.1572" stroke="white" stroke-width="0.647051" stroke-miterlimit="10"/>
<path d="M97.7479 90.6816L127.304 104.59" stroke="white" stroke-width="0.647051" stroke-miterlimit="10"/>
<path d="M96.7951 92.4298L124.504 109.729" stroke="white" stroke-width="0.647051" stroke-miterlimit="10"/>
<path d="M95.6427 94.0535L121.117 114.501" stroke="white" stroke-width="0.647051" stroke-miterlimit="10"/>
<path d="M94.3068 95.5298L117.19 118.841" stroke="white" stroke-width="0.647051" stroke-miterlimit="10"/>
<path d="M92.8059 96.8381L112.779 122.686" stroke="white" stroke-width="0.647051" stroke-miterlimit="10"/>
<path d="M91.1613 97.9603L107.945 125.985" stroke="white" stroke-width="0.647051" stroke-miterlimit="10"/>
<path d="M89.3957 98.8805L102.755 128.689" stroke="white" stroke-width="0.647051" stroke-miterlimit="10"/>
<path d="M87.5339 99.5859L97.2823 130.763" stroke="white" stroke-width="0.647051" stroke-miterlimit="10"/>
<path d="M85.6017 100.067L91.6033 132.176" stroke="white" stroke-width="0.647051" stroke-miterlimit="10"/>
<path d="M83.6265 100.316L85.7973 132.91" stroke="white" stroke-width="0.647051" stroke-miterlimit="10"/>
<path d="M81.6355 100.331L79.9452 132.953" stroke="white" stroke-width="0.647051" stroke-miterlimit="10"/>
<path d="M79.6567 100.111L74.129 132.305" stroke="white" stroke-width="0.647051" stroke-miterlimit="10"/>
<path d="M77.7177 99.6582L68.4298 130.976" stroke="white" stroke-width="0.647051" stroke-miterlimit="10"/>
<path d="M75.8457 98.9803L62.9272 128.983" stroke="white" stroke-width="0.647051" stroke-miterlimit="10"/>
<path d="M74.0668 98.0862L57.6984 126.355" stroke="white" stroke-width="0.647051" stroke-miterlimit="10"/>
<path d="M72.4057 96.9884L52.816 123.128" stroke="white" stroke-width="0.647051" stroke-miterlimit="10"/>
<path d="M70.8858 95.7024L48.3486 119.348" stroke="white" stroke-width="0.647051" stroke-miterlimit="10"/>
<path d="M69.5282 94.2458L44.3583 115.067" stroke="white" stroke-width="0.647051" stroke-miterlimit="10"/>
<path d="M68.352 92.6394L40.9012 110.345" stroke="white" stroke-width="0.647051" stroke-miterlimit="10"/>
<path d="M67.3736 90.9054L38.0253 105.248" stroke="white" stroke-width="0.647051" stroke-miterlimit="10"/>
<path d="M66.6067 89.068L35.771 99.8476" stroke="white" stroke-width="0.647051" stroke-miterlimit="10"/>
<path d="M66.0619 87.153L34.1697 94.2187" stroke="white" stroke-width="0.647051" stroke-miterlimit="10"/>
<path d="M65.7468 85.187L33.2437 88.4403" stroke="white" stroke-width="0.647051" stroke-miterlimit="10"/>
<path d="M65.666 83.1977L33.006 82.5929" stroke="white" stroke-width="0.647051" stroke-miterlimit="10"/>
<path d="M65.8205 81.2126L33.4601 76.7583" stroke="white" stroke-width="0.647051" stroke-miterlimit="10"/>
<path d="M66.208 79.2597L34.5993 71.018" stroke="white" stroke-width="0.647051" stroke-miterlimit="10"/>
<path d="M66.8233 77.3662L36.4079 65.4523" stroke="white" stroke-width="0.647051" stroke-miterlimit="10"/>
<path d="M67.6579 75.5584L38.8607 60.1389" stroke="white" stroke-width="0.647051" stroke-miterlimit="10"/>
<path d="M68.6997 73.8618L41.9232 55.152" stroke="white" stroke-width="0.647051" stroke-miterlimit="10"/>
<path d="M69.9346 72.3L45.5529 50.5613" stroke="white" stroke-width="0.647051" stroke-miterlimit="10"/>
<path d="M71.3452 70.8948L49.6989 46.431" stroke="white" stroke-width="0.647051" stroke-miterlimit="10"/>
<path d="M72.9116 69.6659L54.3032 42.8188" stroke="white" stroke-width="0.647051" stroke-miterlimit="10"/>
<path d="M74.6122 68.6303L59.3016 39.7751" stroke="white" stroke-width="0.647051" stroke-miterlimit="10"/>
<path d="M76.423 67.8027L64.6242 37.3425" stroke="white" stroke-width="0.647051" stroke-miterlimit="10"/>
<path d="M78.3189 67.1945L70.1967 35.5549" stroke="white" stroke-width="0.647051" stroke-miterlimit="10"/>
<path d="M80.2733 66.8143L75.9413 34.4373" stroke="white" stroke-width="0.647051" stroke-miterlimit="10"/>
</g>
<defs>
<clipPath id="clip0_1918_1601">
<rect width="114" height="166" fill="white" transform="translate(166) rotate(90)"/>
</clipPath>
<clipPath id="clip1_1918_1601">
<rect width="99" height="98.9695" fill="white" transform="translate(33 34)"/>
</clipPath>
</defs>
</svg>
