<svg width="27" height="31" viewBox="0 0 27 31" fill="none" xmlns="http://www.w3.org/2000/svg">
<g id="Arrow 2">
<path id="Arrow 2_2" d="M5.41282 23.5055L4.91835 24.0927L6.09271 25.0817L6.58718 24.4945L5.41282 23.5055ZM22.7648 4.93444C22.7286 4.51203 22.3569 4.19895 21.9344 4.23516L15.0508 4.82518C14.6284 4.86139 14.3153 5.23317 14.3516 5.65558C14.3878 6.07799 14.7595 6.39108 15.182 6.35487L21.3007 5.8304L21.8252 11.9492C21.8614 12.3716 22.2332 12.6847 22.6556 12.6484C23.078 12.6122 23.3911 12.2405 23.3549 11.818L22.7648 4.93444ZM6.58718 24.4945L22.5872 5.49447L21.4128 4.50553L5.41282 23.5055L6.58718 24.4945Z" fill="white"/>
</g>
</svg>
