<svg width="55" height="55" viewBox="0 0 55 55" fill="none" xmlns="http://www.w3.org/2000/svg">
<g id="dollar-symbol">
<path id="primary" d="M16.0417 35.5208C16.0417 37.6481 16.8867 39.6882 18.3909 41.1924C19.8951 42.6966 21.9352 43.5416 24.0625 43.5416H30.9375C33.0647 43.5416 35.1049 42.6966 36.6091 41.1924C38.1133 39.6882 38.9583 37.6481 38.9583 35.5208C38.9583 33.3936 38.1133 31.3534 36.6091 29.8492C35.1049 28.345 33.0647 27.5 30.9375 27.5H24.0625C21.9352 27.5 19.8951 26.6549 18.3909 25.1507C16.8867 23.6465 16.0417 21.6064 16.0417 19.4791C16.0417 17.3519 16.8867 15.3118 18.3909 13.8076C19.8951 12.3034 21.9352 11.4583 24.0625 11.4583H30.9375C33.0647 11.4583 35.1049 12.3034 36.6091 13.8076C38.1133 15.3118 38.9583 17.3519 38.9583 19.4791" stroke="white" stroke-width="4.58333" stroke-linecap="round" stroke-linejoin="round"/>
<path id="secondary" d="M27.5 48.125V6.875" stroke="white" stroke-width="4.58333" stroke-linecap="round" stroke-linejoin="round"/>
</g>
</svg>
