<svg width="153" height="153" viewBox="0 0 153 153" fill="none" xmlns="http://www.w3.org/2000/svg">
<g id="Group">
<path id="Vector" d="M0.151184 152.867V0.169067" stroke="white" stroke-width="0.302319" stroke-miterlimit="10"/>
<path id="Vector_2" d="M8.18793 152.867V136.986C8.18793 134.543 8.18793 131.871 8.18213 129.008C8.12523 124.993 8.08726 121.048 8.06731 117.126C8.0473 113.205 8.04718 109.314 8.06537 105.405C8.08291 101.493 8.11864 97.5628 8.17221 93.5699C8.18673 91.7017 8.18793 89.8215 8.18793 87.9318V0.168823" stroke="white" stroke-width="0.302319" stroke-miterlimit="10"/>
<path id="Vector_3" d="M16.2246 152.867V143.59C16.2246 141.643 16.2246 139.429 16.2216 136.971C15.3963 123.004 15.3963 109.577 15.631 95.7065C15.8198 91.2605 16.0175 86.7238 16.2246 82.2391V0.168823" stroke="white" stroke-width="0.302319" stroke-miterlimit="10"/>
<path id="Vector_4" d="M24.2614 152.867V150.419C24.2614 148.83 24.2614 146.51 24.2554 143.566C20.7672 125.018 20.0958 104.877 23.4361 86.2328C23.6973 84.1283 23.9632 81.9646 24.2437 79.7917C24.2614 78.1541 24.2614 76.5175 24.2614 74.8817V0.168823" stroke="white" stroke-width="0.302319" stroke-miterlimit="10"/>
<path id="Vector_5" d="M32.2981 152.865C31.9526 150.712 31.6173 148.571 31.2967 146.44C27.4808 125.69 24.124 104.206 30.7303 83.7037C31.2109 81.6902 31.715 79.5902 32.283 77.4744C32.2981 75.7225 32.2981 73.9723 32.2981 72.2251V0.168823" stroke="white" stroke-width="0.302319" stroke-miterlimit="10"/>
<path id="Vector_6" d="M40.3348 152.701C40.4064 150.835 40.3327 149.003 40.1355 147.198C38.2225 133.075 28.1521 120.319 30.1662 104.877C31.5089 94.8071 40.908 88.0935 40.3305 77.2341C40.3348 75.5633 40.3348 73.8928 40.3348 72.2251V0.168823" stroke="white" stroke-width="0.302319" stroke-miterlimit="10"/>
<path id="Vector_7" d="M48.3515 152.323C48.3418 150.01 48.112 147.748 47.6661 145.496C40.2366 125.69 28.8235 104.877 46.2789 85.408C48.2929 84.0653 48.9643 80.7085 48.3715 77.2334V0.168823" stroke="white" stroke-width="0.302319" stroke-miterlimit="10"/>
<path id="Vector_8" d="M56.3787 152.133C55.9058 149.757 55.4289 147.393 54.885 145.043C46.9502 124.347 40.908 101.521 56.2567 82.249C56.3792 80.3371 56.4083 78.4264 56.4083 76.5177V48.4834C56.3492 40.4269 56.3492 32.3706 56.4083 24.0278V0.168823" stroke="white" stroke-width="0.302319" stroke-miterlimit="10"/>
<path id="Vector_9" d="M64.4309 152.339C64.1598 150.211 63.9024 148.081 63.6627 145.949C63.3188 143.824 62.9926 141.697 62.5838 139.575C54.3352 120.319 58.3633 100.849 64.3777 82.2435C64.4449 79.7401 64.4449 77.233 64.4449 74.7284V62.2768C64.5239 60.217 64.5826 58.1523 64.6248 56.0841C64.667 54.016 64.692 51.9421 64.6984 49.8472C64.4055 37.0702 64.4055 24.9857 64.4449 12.5612V0.168823" stroke="white" stroke-width="0.302319" stroke-miterlimit="10"/>
<path id="Vector_10" d="M72.4817 152.701C72.4126 150.537 72.3571 148.374 72.3132 146.213C72.2578 144.038 72.2142 141.865 72.1687 139.678C67.7624 123.004 70.4478 105.549 72.4321 87.9351C72.4794 86.0424 72.4817 84.143 72.4817 82.2391V72.2265C72.7021 70.731 72.8859 69.2609 73.0413 67.8079C73.1954 66.3552 73.321 64.9192 73.422 63.4823C75.1473 43.1124 72.4618 23.643 72.4817 3.47154V0.168823" stroke="white" stroke-width="0.302319" stroke-miterlimit="10"/>
<path id="Vector_11" d="M80.5184 152.865C80.5184 148.253 80.5183 143.703 80.5183 139.193C80.5182 136.939 80.5182 134.694 80.518 132.456C80.5179 130.219 80.5023 127.989 80.4487 125.767C79.8468 114.948 80.5182 104.206 80.5184 93.5673V84.2769C80.5184 82.7163 80.5184 81.1513 80.5202 79.5857C81.3592 77.5441 82.0512 75.485 82.6098 73.4128C86.5604 49.1546 79.8468 24.3143 80.5184 0.168823" stroke="white" stroke-width="0.302319" stroke-miterlimit="10"/>
<path id="Vector_12" d="M88.5551 152.867V136.983C88.5745 129.718 88.5745 122.333 88.5545 114.963C88.5551 113.289 88.5551 111.581 88.5551 109.844V93.3049C88.5551 91.4086 88.5551 89.4978 88.5578 87.5784C88.5661 84.4792 88.7381 81.419 89.4116 78.6301C90.085 75.8412 91.2599 73.3235 93.2605 71.3C95.9595 67.9527 97.9735 63.9246 97.9735 59.225C96.6308 39.0842 85.889 20.9576 88.5537 0.164124" stroke="white" stroke-width="0.302319" stroke-miterlimit="10"/>
<path id="Vector_13" d="M96.5918 152.867V98.2911C96.5918 96.7288 96.5918 95.1533 96.5926 93.5681C95.6046 88.481 96.9569 83.9234 98.9757 79.6305C99.6487 78.1996 100.396 76.798 101.155 75.4161C106.03 68.624 108.044 60.5677 106.701 51.8401C102.673 33.7134 93.9453 18.2721 96.5904 0.164001" stroke="white" stroke-width="0.302319" stroke-miterlimit="10"/>
<path id="Vector_14" d="M104.629 152.867V102.935C104.629 101.402 104.629 99.8534 104.629 98.2911C103.325 89.2548 107.366 81.767 110.802 73.9996C111.661 72.0578 112.478 70.0993 113.156 68.0933C114.758 63.9245 115.429 59.225 114.758 55.1968C109.387 36.3988 102.002 19.6148 104.629 0.168823" stroke="white" stroke-width="0.302319" stroke-miterlimit="10"/>
<path id="Vector_15" d="M112.665 152.867V102.935C112.665 101.402 112.665 99.8534 112.666 98.2912C111.612 88.6742 115.632 80.078 118.167 70.8749C118.674 69.0343 119.121 67.1694 119.457 65.2673C120.128 46.4692 110.729 28.3425 112.653 9.4046C112.664 6.52175 112.665 4.20581 112.665 2.61676V0.168823" stroke="white" stroke-width="0.302319" stroke-miterlimit="10"/>
<path id="Vector_16" d="M120.702 152.867V98.0152C122.094 85.6694 123.461 73.4542 123.797 61.1864C123.854 58.7351 123.87 56.2802 123.825 53.8137C123.485 41.0983 120.8 29.0139 120.695 16.0449C120.699 13.6068 120.701 11.3924 120.702 9.44524V0.168823" stroke="white" stroke-width="0.302319" stroke-miterlimit="10"/>
<path id="Vector_17" d="M128.739 152.867V98.2911C128.739 96.545 128.739 94.7823 128.744 93.0119C129.762 78.7601 130.068 64.9446 129.659 51.0673C129.599 49.085 129.526 47.1015 129.436 45.1155C128.856 39.7556 128.856 33.7133 128.738 28.461C128.738 25.6702 128.739 23.0238 128.739 20.5512V0.168823" stroke="white" stroke-width="0.302319" stroke-miterlimit="10"/>
<path id="Vector_18" d="M136.775 152.867V90.7585C136.775 89.1145 136.778 87.4631 136.79 85.8153C136.912 71.9808 137.584 57.2109 136.79 43.2081C136.776 41.6723 136.775 40.1737 136.775 38.7009V0.168823" stroke="white" stroke-width="0.302319" stroke-miterlimit="10"/>
<path id="Vector_19" d="M144.812 152.867V76.5177C144.969 69.2954 144.969 61.2391 144.813 53.9187C144.812 52.086 144.812 50.2728 144.812 48.4834V0.168823" stroke="white" stroke-width="0.302319" stroke-miterlimit="10"/>
<path id="Vector_20" d="M152.849 152.867V0.168823" stroke="white" stroke-width="0.302319" stroke-miterlimit="10"/>
</g>
</svg>
