<svg width="74" height="39" viewBox="0 0 74 39" fill="none" xmlns="http://www.w3.org/2000/svg">
<g clip-path="url(#clip0_1913_667)">
<path d="M32.723 6.98666L30.1746 20.2229L28.0795 20.1505L31.232 10.693L32.723 6.98666Z" fill="white" stroke="white" stroke-width="0.511224" stroke-miterlimit="10"/>
<path d="M15.3434 14.5084C19.9614 13.434 25.6789 11.2257 32.5591 7.08559C32.6118 7.05392 32.6748 7.10681 32.6519 7.16379L31.2406 10.6719C31.2351 10.6855 31.2252 10.6969 31.2123 10.7041C24.4268 14.4943 13.8561 17.3153 4.57033 15.8827C3.29955 15.6866 2.05226 15.4107 0.842624 15.0468C0.824797 15.0414 0.810161 15.0286 0.802457 15.0117L0.261637 13.8219C0.235944 13.7654 0.297494 13.7087 0.35132 13.7396C1.16143 14.2044 4.78663 15.9886 11.5306 15.1849C12.7064 15.0452 13.9768 14.8262 15.3434 14.5084Z" stroke="white" stroke-width="0.511224" stroke-miterlimit="10"/>
<path d="M32.7231 6.98665C34.0991 7.22606 35.6021 7.49532 37.1937 7.78414L32.24 20.2945L30.1747 20.2229L32.7231 6.98665Z" stroke="white" stroke-width="0.511224" stroke-miterlimit="10"/>
<path d="M71.107 16.7424C69.9994 20.7469 69.829 21.599 69.829 21.599L34.2218 20.3635L37.1937 7.78416C51.7106 10.4229 73.5779 14.7828 73.5779 14.7828C73.5779 14.7828 74.0039 15.8052 71.107 16.7424Z" stroke="white" stroke-width="0.511224" stroke-miterlimit="10"/>
<path d="M4.56665 15.8537L4.81915 17.7648L28.0796 20.1505" stroke="white" stroke-width="0.511224" stroke-miterlimit="10"/>
<path d="M37.1937 7.78415L34.2218 20.3635L32.24 20.2945L37.1937 7.78415Z" fill="white" stroke="white" stroke-width="0.511224" stroke-miterlimit="10"/>
<path d="M40.8538 8.45685L38.3828 20.3636H36.3234L40.8538 8.45685Z" fill="white" stroke="white" stroke-width="0.511224" stroke-miterlimit="10"/>
<path d="M41.9466 20.6316L44.7507 9.18533L40.0366 20.5654L41.9466 20.6316Z" fill="white" stroke="white" stroke-width="0.511224" stroke-miterlimit="10"/>
<path d="M48.6111 10.1392L45.6392 20.6191L43.6575 20.5618L48.6111 10.1392Z" fill="white" stroke="white" stroke-width="0.466606" stroke-miterlimit="10"/>
<path d="M52.2711 10.6928L49.8 20.7895H47.7406L52.2711 10.6928Z" fill="white" stroke="white" stroke-width="0.470753" stroke-miterlimit="10"/>
<path d="M53.3638 20.9599L56.1678 11.2926L51.4537 20.904L53.3638 20.9599Z" fill="white" stroke="white" stroke-width="0.469818" stroke-miterlimit="10"/>
<path d="M59.0711 12.3662L56.6375 20.9482L55.0146 20.9013L59.0711 12.3662Z" fill="white" stroke="white" stroke-width="0.382107" stroke-miterlimit="10"/>
<path d="M62.0683 12.8196L60.0447 21.0878H58.3583L62.0683 12.8196Z" fill="white" stroke="white" stroke-width="0.385502" stroke-miterlimit="10"/>
<path d="M62.9632 21.2273L65.2594 13.3107L61.399 21.1815L62.9632 21.2273Z" fill="white" stroke="white" stroke-width="0.384729" stroke-miterlimit="10"/>
<path d="M65.8632 21.4829L68.1402 13.6325L64.3121 21.4375L65.8632 21.4829Z" fill="white" stroke="white" stroke-width="0.381518" stroke-miterlimit="10"/>
<path d="M68.8649 21.4829L71.0184 14.0585L67.3981 21.4399L68.8649 21.4829Z" fill="white" stroke="white" stroke-width="0.360804" stroke-miterlimit="10"/>
<path d="M15.3433 14.5081C15.3433 14.5081 14.6601 12.2692 16.1937 9.96875C18.3238 10.054 18.8912 9.96875 18.8912 9.96875C18.8912 9.96875 18.6646 9.62795 19.0906 9.28712C19.5166 8.9463 19.2973 8.45685 19.2973 8.45685L18.4942 8.4351C18.4942 8.4351 18.1534 8.17948 18.7498 7.66826C19.3462 7.15704 19.3807 7.07184 19.0653 6.98663C18.7498 6.90142 16.3231 6.5715 16.3231 6.5715C16.3231 6.5715 16.4494 6.2198 16.705 5.879C16.9606 5.53819 15.1916 5.4693 15.1916 5.4693C15.1916 5.4693 15.5973 5.02697 15.3417 4.77136C15.0861 4.51574 15.0009 4.43055 14.9157 4.43055C14.8305 4.43055 15.0009 4.26015 15.7677 3.66372C16.5346 3.06728 17.3866 3.32292 15.4269 2.72648C13.4673 2.13005 14.4244 2.72648 14.4244 2.72648C14.4244 2.72648 13.6377 1.61884 11.1668 2.89688C8.69591 4.17492 15.7677 3.66372 15.7677 3.66372L11.0243 3.6143C11.0243 3.6143 12.104 3.66372 12.104 4.51574C12.104 5.36777 10.4 5.53817 10.4 5.53817L10.3148 6.2198L7.67346 6.3902C7.67346 6.3902 8.54 7.4745 8.36234 7.78439C8.18469 8.09427 9.97395 8.00906 9.97395 8.00906C9.97395 8.00906 10.9112 8.47858 7.67346 8.45683C8.01426 9.96873 8.18469 9.88352 8.18469 9.88352L10.9112 10.2243C10.9112 10.2243 12.2354 14.1811 11.5307 15.1848" fill="white"/>
<path d="M15.3433 14.5081C15.3433 14.5081 14.6601 12.2692 16.1937 9.96875C18.3238 10.054 18.8912 9.96875 18.8912 9.96875C18.8912 9.96875 18.6646 9.62795 19.0906 9.28712C19.5166 8.9463 19.2973 8.45685 19.2973 8.45685L18.4942 8.4351C18.4942 8.4351 18.1534 8.17948 18.7498 7.66826C19.3462 7.15704 19.3807 7.07184 19.0653 6.98663C18.7498 6.90142 16.3231 6.5715 16.3231 6.5715C16.3231 6.5715 16.4494 6.2198 16.705 5.879C16.9606 5.53819 15.1916 5.4693 15.1916 5.4693C15.1916 5.4693 15.5973 5.02697 15.3417 4.77136C15.0861 4.51574 15.0009 4.43055 14.9157 4.43055C14.8305 4.43055 15.0009 4.26015 15.7677 3.66372M15.7677 3.66372C16.5346 3.06728 17.3866 3.32292 15.4269 2.72648C13.4673 2.13005 14.4244 2.72648 14.4244 2.72648C14.4244 2.72648 13.6377 1.61884 11.1668 2.89688C8.69591 4.17492 15.7677 3.66372 15.7677 3.66372ZM15.7677 3.66372L11.0243 3.6143C11.0243 3.6143 12.104 3.66372 12.104 4.51574C12.104 5.36777 10.4 5.53817 10.4 5.53817L10.3148 6.2198L7.67346 6.3902C7.67346 6.3902 8.54 7.4745 8.36234 7.78439C8.18469 8.09427 9.97395 8.00906 9.97395 8.00906C9.97395 8.00906 10.9112 8.47858 7.67346 8.45683C8.01426 9.96873 8.18469 9.88352 8.18469 9.88352L10.9112 10.2243C10.9112 10.2243 12.2354 14.1811 11.5307 15.1848" stroke="white" stroke-width="0.511224" stroke-miterlimit="10"/>
<path d="M14.4897 1.27803C14.4897 1.84272 14.0319 2.30046 13.4672 2.30046C12.111 2.24661 12.1114 0.309248 13.4672 0.255585C14.0319 0.255585 14.4897 0.713369 14.4897 1.27803Z" fill="white" stroke="white" stroke-width="0.511224" stroke-miterlimit="10"/>
<path d="M29.8335 30.4011V33.4621H27.1652C26.8028 33.4621 26.546 33.5158 26.395 33.6232C26.2439 33.7306 26.1684 33.9118 26.1684 34.1669C26.1684 34.4556 26.2454 34.6452 26.4 34.7358C26.5544 34.8264 26.8697 34.8717 27.3465 34.8717H30.0953V38.7986H26.8833C25.373 38.7986 24.2184 38.4378 23.4196 37.7162C22.6207 36.9946 22.2214 35.9525 22.2214 34.5898V29.2029C22.2214 27.8873 22.599 26.867 23.3542 26.142C24.1093 25.417 25.1716 25.0546 26.541 25.0546H30.0953V29.0016H27.4874C26.7826 29.0016 26.4302 29.2298 26.4302 29.6863C26.4302 29.9548 26.5141 30.1411 26.682 30.2451C26.8496 30.3492 27.1485 30.4012 27.5781 30.4012L29.8335 30.4011Z" fill="white"/>
<path d="M42.027 34.3884H36.318C36.2307 34.0998 36.1871 33.8346 36.1871 33.593C36.1871 33.2574 36.2475 32.9284 36.3683 32.6062H38.2814C38.147 31.8611 37.7276 31.4886 37.0228 31.4886C36.5529 31.4886 36.1703 31.6883 35.8749 32.0877C35.5794 32.4871 35.4319 32.9989 35.4319 33.6232C35.4319 34.2743 35.5744 34.8013 35.8598 35.204C36.1451 35.6068 36.5193 35.8082 36.9825 35.8082C37.3584 35.8082 37.7209 35.6202 38.0699 35.2443L40.2146 37.8219C39.2143 38.6073 38.1035 39 36.8818 39C35.3916 39 34.1395 38.4999 33.1261 37.4997C32.1125 36.4996 31.6057 35.2611 31.6057 33.7843C31.6057 32.3142 32.1175 31.0724 33.1412 30.0588C34.1647 29.0452 35.4218 28.5384 36.912 28.5384C38.3685 28.5384 39.5918 29.0335 40.5821 30.0236C41.5722 31.0137 42.0673 32.2337 42.0673 33.6836C42.0673 33.8313 42.0537 34.0662 42.027 34.3884Z" fill="white"/>
<path d="M49.0954 28.6592V32.6868C48.8336 32.5391 48.5953 32.4653 48.3805 32.4653C47.6958 32.4653 47.3534 32.9889 47.3534 34.036V38.7986H43.5876V33.3111C43.5876 31.8611 43.9837 30.7049 44.7758 29.8423C45.5677 28.9797 46.6249 28.5485 47.9475 28.5485C48.2428 28.5485 48.6255 28.5854 49.0954 28.6592Z" fill="white"/>
<path d="M54.9655 28.5485C56.3886 28.5485 57.6086 29.0603 58.6256 30.084C59.6425 31.1076 60.151 32.3344 60.151 33.7641C60.151 35.2141 59.6358 36.4492 58.6054 37.4695C57.5749 38.4898 56.3314 39 54.8749 39C53.4184 39 52.1729 38.4881 51.1393 37.4645C50.1056 36.4408 49.5887 35.2074 49.5887 33.7641C49.5887 32.2941 50.1056 31.0573 51.1393 30.0538C52.1729 29.0502 53.4485 28.5485 54.9655 28.5485ZM54.8649 32.2639C54.4621 32.2639 54.1198 32.4099 53.8378 32.7019C53.5559 32.9939 53.4149 33.3513 53.4149 33.7742C53.4149 34.1904 53.5574 34.5462 53.8429 34.8415C54.1282 35.1369 54.4687 35.2846 54.8649 35.2846C55.2676 35.2846 55.6115 35.1369 55.8969 34.8415C56.1822 34.5462 56.3249 34.1904 56.3249 33.7742C56.3249 33.3513 56.1839 32.9939 55.9019 32.7019C55.62 32.4099 55.2742 32.2639 54.8649 32.2639Z" fill="white"/>
</g>
<defs>
<clipPath id="clip0_1913_667">
<rect width="73.8556" height="39" fill="white"/>
</clipPath>
</defs>
</svg>
