<svg width="153" height="154" viewBox="0 0 153 154" fill="none" xmlns="http://www.w3.org/2000/svg">
<g clip-path="url(#clip0_1918_1503)">
<path d="M0.151161 0.168817H76.5C78.4088 0.168817 80.3175 0.168817 82.2212 0.168212C89.9172 0.145418 97.3022 0.145418 104.534 0.168636C106.324 0.168817 108.089 0.168817 109.826 0.168817H152.849" stroke="white" stroke-width="0.302319" stroke-miterlimit="10"/>
<path d="M0.151161 8.20554H65.0859C66.9755 8.20638 68.8746 8.20693 70.7777 8.20554C85.2177 7.53034 99.3162 7.53034 114.314 8.19743C115.789 8.20511 117.237 8.20554 118.657 8.20554H152.849" stroke="white" stroke-width="0.302319" stroke-miterlimit="10"/>
<path d="M0.151161 16.2423H59.4503C61.3161 16.249 63.1967 16.2548 65.0984 16.2742C83.2036 16.258 102.002 14.9153 119.858 16.2235C121.469 16.2409 123.035 16.2423 124.557 16.2423H152.849" stroke="white" stroke-width="0.302319" stroke-miterlimit="10"/>
<path d="M0.151161 24.279H53.9007C55.7832 24.2819 57.6579 24.3312 59.5259 24.4153C81.1895 24.3143 103.344 23.643 124.523 24.2492C127.336 24.2813 129.988 24.2801 132.467 24.279H152.849" stroke="white" stroke-width="0.302319" stroke-miterlimit="10"/>
<path d="M0.151161 32.3157H53.9007C55.452 32.132 56.9877 32.06 58.5109 32.0786C69.1051 32.3706 78.5041 34.3847 89.2459 35.7274C102.673 37.7415 115.429 33.7133 128.987 32.3184C131.853 32.3157 134.525 32.3157 136.968 32.3157H152.849" stroke="white" stroke-width="0.302319" stroke-miterlimit="10"/>
<path d="M0.151161 40.3524H53.9007C55.452 40.2336 56.9877 40.2202 58.5103 40.2931C60.0329 40.366 61.5396 40.5157 63.0167 40.673C78.5041 41.0983 91.9313 49.826 106.701 50.4973C114.757 50.4973 120.8 43.7838 128.267 41.0535C129.619 40.5766 131.006 40.2386 132.453 40.101C133.893 39.9649 135.392 40.0292 136.968 40.3524H152.849" stroke="white" stroke-width="0.302319" stroke-miterlimit="10"/>
<path d="M0.151161 48.3892H53.9007C56.0991 48.293 58.2481 48.3433 60.3653 48.5096C62.4825 48.6759 64.5606 48.936 66.5813 49.1919C76.49 49.826 85.2177 53.8541 93.9453 57.8823C108.044 63.9245 120.128 55.8682 131.948 49.4748C133.747 48.809 135.595 48.3216 137.522 48.1087C139.449 47.8957 141.455 47.9573 143.572 48.3892H152.849" stroke="white" stroke-width="0.302319" stroke-miterlimit="10"/>
<path d="M0.151161 56.4259H53.9008C55.7331 56.4259 57.5846 56.4265 59.4503 56.43C61.6536 56.8867 63.8457 57.31 66.0284 57.6988C84.5463 59.8964 103.344 68.624 122.004 63.4966C124.06 62.9318 126.109 62.1996 128.147 61.2729C130.185 60.3462 132.213 59.225 134.227 57.8823C137.584 55.8682 140.269 56.5396 143.584 56.4363C146.493 56.4259 148.812 56.4259 150.401 56.4259H152.849" stroke="white" stroke-width="0.302319" stroke-miterlimit="10"/>
<path d="M0.151161 64.4626H65.0859C66.9755 64.4635 68.883 64.471 70.8834 64.581C85.2177 69.2954 99.9876 70.6381 114.603 69.6959C117.023 69.4856 119.442 69.2087 121.859 68.8734C129.113 67.8673 136.359 66.3346 143.603 64.4902C146.493 64.4626 148.812 64.4626 150.401 64.4626H152.849" stroke="white" stroke-width="0.302319" stroke-miterlimit="10"/>
<path d="M0.151161 72.4993H70.7786C72.6826 72.4993 74.5943 72.5021 76.5429 72.5399C90.5886 74.6663 104.016 78.023 118.786 76.009C127.513 74.6663 134.898 71.9808 143.586 72.5109C145.52 72.4995 147.199 72.4993 148.573 72.4993H152.849" stroke="white" stroke-width="0.302319" stroke-miterlimit="10"/>
<path d="M0.151161 80.536H17.2722C19.3709 80.536 21.6223 80.5363 23.9932 80.5388C25.5816 80.567 27.1849 80.5906 28.7976 80.6094C30.4103 80.6283 32.0323 80.6423 33.6572 80.6486C41.5793 80.7085 49.6356 80.7085 57.5601 80.538C59.117 80.5373 60.6818 80.5368 62.2592 80.536H76.5C78.4088 80.536 80.3175 80.536 82.2333 80.5434C101.33 82.7226 120.128 82.0512 138.806 80.5808C141.668 80.5383 144.2 80.536 146.288 80.536H152.849" stroke="white" stroke-width="0.302319" stroke-miterlimit="10"/>
<path d="M0.151161 88.5728H9.42757C11.7681 88.5968 14.0994 88.6073 16.4241 88.6084C36.8798 87.4221 56.3492 88.7648 76.5 88.5728H83.6484C86.025 88.5728 88.3922 88.5728 90.7522 88.5794C104.687 88.7648 119.457 88.7648 133.598 88.5912C136.511 88.573 139.181 88.5728 141.538 88.5728H152.849" stroke="white" stroke-width="0.302319" stroke-miterlimit="10"/>
<path d="M0.151161 96.6095C0.151161 96.6095 2.53706 96.6095 6.66916 96.6165C8.75032 96.5698 10.8248 96.5076 12.8843 96.3998C36.2084 92.1216 59.0346 95.4784 82.2214 96.6095H97.9976C99.6534 96.6095 101.295 96.6095 102.918 96.6102C110.058 96.8211 118.114 96.8211 125.465 96.6095H152.849" stroke="white" stroke-width="0.302319" stroke-miterlimit="10"/>
<path d="M0.151161 104.646C0.151161 104.646 1.67811 104.646 4.38882 104.652C6.76517 104.473 9.13777 104.255 11.4788 103.909C34.1944 96.1498 58.3633 98.8352 82.1261 104.611C84.1191 104.641 86.0245 104.646 87.9142 104.646H152.849" stroke="white" stroke-width="0.302319" stroke-miterlimit="10"/>
<path d="M0.151161 112.683C0.151161 112.683 1.67811 112.683 4.3774 112.691C6.4377 112.955 8.43119 112.94 10.3555 112.643C18.0818 110.92 24.124 105.549 32.1803 103.535C49.6356 99.5065 64.4055 108.906 81.2515 111.314C83.5643 111.712 85.7643 112.168 87.9138 112.68C89.8038 112.682 91.6839 112.682 93.5497 112.683H152.849" stroke="white" stroke-width="0.302319" stroke-miterlimit="10"/>
<path d="M0.151161 120.72C0.151161 120.72 1.67811 120.72 4.41222 120.722C5.81553 120.789 7.24562 120.881 8.66059 120.916C18.0818 122.333 22.1099 112.262 30.1662 109.577C36.8798 106.891 44.2647 108.234 50.9783 110.248C61.0488 113.605 70.4478 117.633 81.2977 119.039C83.5841 119.53 85.7526 120.068 87.9007 120.637C89.8038 120.714 91.6839 120.716 93.5497 120.72H152.849" stroke="white" stroke-width="0.302319" stroke-miterlimit="10"/>
<path d="M0.151161 128.756H4.42668C5.80096 128.756 7.48052 128.756 9.41004 128.753C13.3822 127.704 18.7531 129.718 21.4385 126.361C38.2225 106.891 61.7201 124.347 81.47 126.773C83.6145 127.333 85.7563 127.963 87.9048 128.663C89.8038 128.746 91.6839 128.751 93.5497 128.756H152.849" stroke="white" stroke-width="0.302319" stroke-miterlimit="10"/>
<path d="M0.151161 136.793H9.42757C11.3744 136.793 13.5886 136.793 16.0284 136.767C18.0818 136.431 20.0958 137.103 21.4385 136.431C38.2225 123.004 57.0206 131.06 74.9427 134.041C77.1688 134.451 79.3241 134.878 81.4848 135.342C83.6221 135.778 85.7647 136.25 87.9141 136.752C89.8038 136.784 91.6839 136.788 93.5497 136.793H152.849" stroke="white" stroke-width="0.302319" stroke-miterlimit="10"/>
<path d="M0.151161 144.83H16.0317C18.4749 144.83 21.1471 144.83 24.0102 144.825C26.1224 144.279 28.2432 143.822 30.3638 143.42C40.908 141.802 51.6497 141.131 62.3608 142.328C64.5203 142.465 66.6567 142.628 68.7843 142.806C70.8951 142.985 72.9971 143.177 75.0876 143.374C77.2156 143.555 79.3475 143.767 81.4848 144.009C83.6221 144.25 85.7647 144.522 87.9141 144.825C89.8038 144.827 91.6839 144.828 93.5497 144.83H152.849" stroke="white" stroke-width="0.302319" stroke-miterlimit="10"/>
<path d="M0.151161 152.866H28.4432C29.9654 152.862 31.5305 152.86 33.1338 152.85C37.2593 152.773 41.3604 152.716 45.4477 152.676C49.5349 152.637 53.6129 152.621 57.6884 152.622C61.7634 152.622 65.8375 152.643 69.9224 152.682C74.0074 152.722 78.1031 152.781 82.2214 152.861C84.1254 152.863 86.0245 152.864 87.9141 152.866H152.849" stroke="white" stroke-width="0.302319" stroke-miterlimit="10"/>
<path d="M0.151161 152.867V0.169052" stroke="white" stroke-width="0.302319" stroke-miterlimit="10"/>
<path d="M8.18788 152.867V136.986C8.18788 134.543 8.18788 131.871 8.18208 129.008C8.12518 124.993 8.08721 121.048 8.06726 117.126C8.04724 113.205 8.04712 109.314 8.06532 105.405C8.08286 101.493 8.11859 97.5628 8.17216 93.5699C8.18667 91.7017 8.18788 89.8215 8.18788 87.9318V0.168823" stroke="white" stroke-width="0.302319" stroke-miterlimit="10"/>
<path d="M16.2246 152.867V143.59C16.2246 141.643 16.2246 139.429 16.2216 136.971C15.3963 123.004 15.3963 109.577 15.631 95.7065C15.8198 91.2605 16.0175 86.7238 16.2246 82.2391V0.168823" stroke="white" stroke-width="0.302319" stroke-miterlimit="10"/>
<path d="M24.2613 152.867V150.419C24.2613 148.83 24.2613 146.51 24.2553 143.566C20.7672 125.018 20.0958 104.877 23.4361 86.2328C23.6973 84.1283 23.9632 81.9646 24.2437 79.7917C24.2613 78.1541 24.2613 76.5175 24.2613 74.8817V0.168823" stroke="white" stroke-width="0.302319" stroke-miterlimit="10"/>
<path d="M32.2981 152.865C31.9526 150.712 31.6172 148.571 31.2967 146.44C27.4808 125.69 24.124 104.206 30.7302 83.7037C31.2109 81.6902 31.7149 79.5902 32.2829 77.4744C32.2981 75.7225 32.2981 73.9723 32.2981 72.2251V0.168823" stroke="white" stroke-width="0.302319" stroke-miterlimit="10"/>
<path d="M40.3348 152.701C40.4064 150.835 40.3327 149.003 40.1355 147.198C38.2225 133.075 28.1521 120.319 30.1662 104.877C31.5089 94.8071 40.908 88.0935 40.3305 77.2341C40.3348 75.5633 40.3348 73.8928 40.3348 72.2251V0.168823" stroke="white" stroke-width="0.302319" stroke-miterlimit="10"/>
<path d="M48.3515 152.323C48.3417 150.01 48.112 147.748 47.6661 145.496C40.2366 125.69 28.8235 104.877 46.2788 85.408C48.2929 84.0653 48.9643 80.7085 48.3715 77.2334V0.168823" stroke="white" stroke-width="0.302319" stroke-miterlimit="10"/>
<path d="M56.3787 152.133C55.9058 149.757 55.4289 147.393 54.885 145.043C46.9502 124.347 40.908 101.521 56.2567 82.249C56.3791 80.3371 56.4082 78.4264 56.4082 76.5177V48.4834C56.3492 40.4269 56.3492 32.3706 56.4082 24.0278V0.168823" stroke="white" stroke-width="0.302319" stroke-miterlimit="10"/>
<path d="M64.4309 152.339C64.1598 150.211 63.9024 148.081 63.6627 145.949C63.3188 143.824 62.9926 141.697 62.5838 139.575C54.3352 120.319 58.3633 100.849 64.3777 82.2435C64.4449 79.7401 64.4449 77.233 64.4449 74.7284V62.2768C64.5239 60.217 64.5826 58.1523 64.6248 56.0841C64.667 54.016 64.692 51.9421 64.6984 49.8472C64.4055 37.0702 64.4055 24.9857 64.4449 12.5612V0.168823" stroke="white" stroke-width="0.302319" stroke-miterlimit="10"/>
<path d="M72.4817 152.701C72.4126 150.537 72.3571 148.374 72.3132 146.213C72.2578 144.038 72.2142 141.865 72.1686 139.678C67.7623 123.004 70.4478 105.549 72.4321 87.9351C72.4794 86.0424 72.4817 84.143 72.4817 82.2391V72.2265C72.7021 70.731 72.8859 69.2609 73.0413 67.8079C73.1954 66.3552 73.321 64.9192 73.422 63.4823C75.1473 43.1124 72.4618 23.643 72.4817 3.47154V0.168823" stroke="white" stroke-width="0.302319" stroke-miterlimit="10"/>
<path d="M80.5184 152.865C80.5184 148.253 80.5183 143.703 80.5183 139.193C80.5182 136.939 80.5182 134.694 80.518 132.456C80.5179 130.219 80.5023 127.989 80.4487 125.767C79.8468 114.948 80.5182 104.206 80.5184 93.5673V84.2769C80.5184 82.7163 80.5184 81.1513 80.5202 79.5857C81.3592 77.5441 82.0512 75.485 82.6098 73.4128C86.5604 49.1546 79.8468 24.3143 80.5184 0.168823" stroke="white" stroke-width="0.302319" stroke-miterlimit="10"/>
<path d="M88.5551 152.867V136.983C88.5745 129.718 88.5745 122.333 88.5545 114.963C88.5551 113.289 88.5551 111.581 88.5551 109.844V93.3049C88.5551 91.4086 88.5551 89.4978 88.5578 87.5784C88.5661 84.4791 88.7381 81.419 89.4116 78.6301C90.085 75.8412 91.2599 73.3235 93.2605 71.3C95.9595 67.9527 97.9735 63.9245 97.9735 59.225C96.6308 39.0842 85.889 20.9575 88.5537 0.164108" stroke="white" stroke-width="0.302319" stroke-miterlimit="10"/>
<path d="M96.5918 152.867V98.2911C96.5918 96.7288 96.5918 95.1532 96.5926 93.5681C95.6046 88.481 96.9569 83.9234 98.9757 79.6305C99.6487 78.1996 100.396 76.798 101.155 75.4161C106.03 68.624 108.044 60.5677 106.701 51.8401C102.673 33.7133 93.9453 18.2721 96.5904 0.163986" stroke="white" stroke-width="0.302319" stroke-miterlimit="10"/>
<path d="M104.629 152.867V102.935C104.629 101.402 104.629 99.8534 104.629 98.2911C103.325 89.2548 107.366 81.767 110.802 73.9996C111.661 72.0578 112.478 70.0993 113.156 68.0933C114.757 63.9245 115.429 59.225 114.757 55.1968C109.387 36.3988 102.002 19.6148 104.629 0.168823" stroke="white" stroke-width="0.302319" stroke-miterlimit="10"/>
<path d="M112.665 152.867V102.935C112.665 101.402 112.665 99.8534 112.666 98.2912C111.612 88.6742 115.632 80.078 118.167 70.8749C118.674 69.0343 119.121 67.1694 119.457 65.2673C120.128 46.4692 110.729 28.3425 112.653 9.4046C112.664 6.52175 112.665 4.20581 112.665 2.61676V0.168823" stroke="white" stroke-width="0.302319" stroke-miterlimit="10"/>
<path d="M120.702 152.867V98.0152C122.094 85.6694 123.461 73.4542 123.797 61.1864C123.854 58.7351 123.87 56.2802 123.825 53.8137C123.485 41.0983 120.8 29.0139 120.695 16.0449C120.699 13.6068 120.701 11.3924 120.702 9.44524V0.168823" stroke="white" stroke-width="0.302319" stroke-miterlimit="10"/>
<path d="M128.739 152.867V98.2911C128.739 96.545 128.739 94.7823 128.744 93.0119C129.762 78.7601 130.068 64.9446 129.659 51.0673C129.599 49.085 129.525 47.1015 129.436 45.1155C128.856 39.7556 128.856 33.7133 128.738 28.461C128.738 25.6702 128.738 23.0238 128.739 20.5512V0.168823" stroke="white" stroke-width="0.302319" stroke-miterlimit="10"/>
<path d="M136.775 152.867V90.7585C136.775 89.1145 136.778 87.4631 136.79 85.8153C136.912 71.9808 137.584 57.2109 136.79 43.2081C136.776 41.6723 136.775 40.1737 136.775 38.7009V0.168823" stroke="white" stroke-width="0.302319" stroke-miterlimit="10"/>
<path d="M144.812 152.867V76.5177C144.969 69.2954 144.969 61.2391 144.813 53.9187C144.812 52.086 144.812 50.2728 144.812 48.4834V0.168823" stroke="white" stroke-width="0.302319" stroke-miterlimit="10"/>
<path d="M152.849 152.867V0.168823" stroke="white" stroke-width="0.302319" stroke-miterlimit="10"/>
</g>
<defs>
<clipPath id="clip0_1918_1503">
<rect width="153" height="153.018" fill="white"/>
</clipPath>
</defs>
</svg>
