<svg width="168" height="167" viewBox="0 0 168 167" fill="none" xmlns="http://www.w3.org/2000/svg">
<g clip-path="url(#clip0_1918_1546)">
<path d="M83.5377 55.1195V0" stroke="white" stroke-width="1.09183" stroke-miterlimit="10"/>
<path d="M86.8914 55.3181L93.3954 0.583588" stroke="white" stroke-width="1.09183" stroke-miterlimit="10"/>
<path d="M90.1984 55.9109L103.115 2.32635" stroke="white" stroke-width="1.09183" stroke-miterlimit="10"/>
<path d="M93.4121 56.8899L112.562 5.20386" stroke="white" stroke-width="1.09183" stroke-miterlimit="10"/>
<path d="M96.488 58.2412L121.603 9.17581" stroke="white" stroke-width="1.09183" stroke-miterlimit="10"/>
<path d="M99.3829 59.9461L130.112 14.187" stroke="white" stroke-width="1.09183" stroke-miterlimit="10"/>
<path d="M102.056 61.9806L137.97 20.167" stroke="white" stroke-width="1.09183" stroke-miterlimit="10"/>
<path d="M104.471 64.3165L145.068 27.0327" stroke="white" stroke-width="1.09183" stroke-miterlimit="10"/>
<path d="M106.594 66.9208L151.306 34.6878" stroke="white" stroke-width="1.09183" stroke-miterlimit="10"/>
<path d="M108.394 69.7575L156.597 43.0255" stroke="white" stroke-width="1.09183" stroke-miterlimit="10"/>
<path d="M109.847 72.7868L160.867 51.9294" stroke="white" stroke-width="1.09183" stroke-miterlimit="10"/>
<path d="M110.932 75.9663L164.057 61.2749" stroke="white" stroke-width="1.09183" stroke-miterlimit="10"/>
<path d="M111.634 79.2516L166.122 70.9315" stroke="white" stroke-width="1.09183" stroke-miterlimit="10"/>
<path d="M111.944 82.5968L167.033 80.7644" stroke="white" stroke-width="1.09183" stroke-miterlimit="10"/>
<path d="M111.857 85.9554L166.778 90.636" stroke="white" stroke-width="1.09183" stroke-miterlimit="10"/>
<path d="M111.375 89.2802L165.359 100.409" stroke="white" stroke-width="1.09183" stroke-miterlimit="10"/>
<path d="M110.503 92.5247L162.797 109.945" stroke="white" stroke-width="1.09183" stroke-miterlimit="10"/>
<path d="M109.255 95.6439L159.128 119.113" stroke="white" stroke-width="1.09183" stroke-miterlimit="10"/>
<path d="M107.647 98.5939L154.403 127.784" stroke="white" stroke-width="1.09183" stroke-miterlimit="10"/>
<path d="M105.703 101.334L148.687 135.837" stroke="white" stroke-width="1.09183" stroke-miterlimit="10"/>
<path d="M103.448 103.825L142.061 143.159" stroke="white" stroke-width="1.09183" stroke-miterlimit="10"/>
<path d="M100.916 106.032L134.618 149.648" stroke="white" stroke-width="1.09183" stroke-miterlimit="10"/>
<path d="M98.1407 107.926L126.461 155.214" stroke="white" stroke-width="1.09183" stroke-miterlimit="10"/>
<path d="M95.1615 109.479L117.704 159.778" stroke="white" stroke-width="1.09183" stroke-miterlimit="10"/>
<path d="M92.0198 110.669L108.469 163.277" stroke="white" stroke-width="1.09183" stroke-miterlimit="10"/>
<path d="M88.7597 111.48L98.8866 165.662" stroke="white" stroke-width="1.09183" stroke-miterlimit="10"/>
<path d="M85.4265 111.901L89.0895 166.899" stroke="white" stroke-width="1.09183" stroke-miterlimit="10"/>
<path d="M82.067 111.926L79.2148 166.972" stroke="white" stroke-width="1.09183" stroke-miterlimit="10"/>
<path d="M78.728 111.554L69.4006 165.879" stroke="white" stroke-width="1.09183" stroke-miterlimit="10"/>
<path d="M75.4562 110.791L59.7838 163.635" stroke="white" stroke-width="1.09183" stroke-miterlimit="10"/>
<path d="M72.2973 109.647L50.4989 160.273" stroke="white" stroke-width="1.09183" stroke-miterlimit="10"/>
<path d="M69.2955 108.138L41.6757 155.838" stroke="white" stroke-width="1.09183" stroke-miterlimit="10"/>
<path d="M66.4927 106.286L33.4373 150.394" stroke="white" stroke-width="1.09183" stroke-miterlimit="10"/>
<path d="M63.928 104.116L25.899 144.015" stroke="white" stroke-width="1.09183" stroke-miterlimit="10"/>
<path d="M61.6374 101.658L19.166 136.791" stroke="white" stroke-width="1.09183" stroke-miterlimit="10"/>
<path d="M59.6527 98.9475L13.3324 128.824" stroke="white" stroke-width="1.09183" stroke-miterlimit="10"/>
<path d="M58.0017 96.0215L8.47964 120.223" stroke="white" stroke-width="1.09183" stroke-miterlimit="10"/>
<path d="M56.7075 92.9211L4.67572 111.11" stroke="white" stroke-width="1.09183" stroke-miterlimit="10"/>
<path d="M55.7882 89.6898L1.97366 101.612" stroke="white" stroke-width="1.09183" stroke-miterlimit="10"/>
<path d="M55.2567 86.3724L0.411163 91.8619" stroke="white" stroke-width="1.09183" stroke-miterlimit="10"/>
<path d="M55.1202 83.0156L0.0101318 81.9951" stroke="white" stroke-width="1.09183" stroke-miterlimit="10"/>
<path d="M55.3809 79.666L0.776276 72.1498" stroke="white" stroke-width="1.09183" stroke-miterlimit="10"/>
<path d="M56.0348 76.3707L2.69864 62.4637" stroke="white" stroke-width="1.09183" stroke-miterlimit="10"/>
<path d="M57.0732 73.1756L5.75055 53.0723" stroke="white" stroke-width="1.09183" stroke-miterlimit="10"/>
<path d="M58.4813 70.1252L9.88922 44.1064" stroke="white" stroke-width="1.09183" stroke-miterlimit="10"/>
<path d="M60.2394 67.2624L15.0571 35.6917" stroke="white" stroke-width="1.09183" stroke-miterlimit="10"/>
<path d="M62.3231 64.627L21.1817 27.9454" stroke="white" stroke-width="1.09183" stroke-miterlimit="10"/>
<path d="M64.7032 62.2559L28.1775 20.976" stroke="white" stroke-width="1.09183" stroke-miterlimit="10"/>
<path d="M67.3466 60.1822L35.9468 14.8807" stroke="white" stroke-width="1.09183" stroke-miterlimit="10"/>
<path d="M70.2159 58.4348L44.381 9.74478" stroke="white" stroke-width="1.09183" stroke-miterlimit="10"/>
<path d="M73.2715 57.0384L53.3624 5.64005" stroke="white" stroke-width="1.09183" stroke-miterlimit="10"/>
<path d="M76.4706 56.012L62.7654 2.62366" stroke="white" stroke-width="1.09183" stroke-miterlimit="10"/>
<path d="M79.7685 55.3705L72.4587 0.737854" stroke="white" stroke-width="1.09183" stroke-miterlimit="10"/>
</g>
<defs>
<clipPath id="clip0_1918_1546">
<rect width="167.052" height="167" fill="white"/>
</clipPath>
</defs>
</svg>
